G04 #@! TF.GenerationSoftware,KiCad,Pcbnew,(5.0.2)-1*
G04 #@! TF.CreationDate,2019-02-11T11:22:53+02:00*
G04 #@! TF.ProjectId,IoTProject,496f5450-726f-46a6-9563-742e6b696361,rev?*
G04 #@! TF.SameCoordinates,Original*
G04 #@! TF.FileFunction,Legend,Top*
G04 #@! TF.FilePolarity,Positive*
%FSLAX46Y46*%
G04 Gerber Fmt 4.6, Leading zero omitted, Abs format (unit mm)*
G04 Created by KiCad (PCBNEW (5.0.2)-1) date 11-Feb-19 11:22:53*
%MOMM*%
%LPD*%
G01*
G04 APERTURE LIST*
%ADD10C,0.120000*%
%ADD11C,0.150000*%
G04 APERTURE END LIST*
D10*
G04 #@! TO.C,A1*
X193798000Y-163706000D02*
X196338000Y-166246000D01*
X182368000Y-163706000D02*
X193798000Y-163706000D01*
X180718000Y-162056000D02*
X182368000Y-163706000D01*
X180718000Y-97406000D02*
X180718000Y-162056000D01*
X190248000Y-97406000D02*
X180718000Y-97406000D01*
X190248000Y-91056000D02*
X190248000Y-97406000D01*
X201928000Y-91056000D02*
X190248000Y-91056000D01*
X201928000Y-97406000D02*
X201928000Y-91056000D01*
X221998000Y-97406000D02*
X201928000Y-97406000D01*
X221998000Y-95506000D02*
X221998000Y-97406000D01*
X231138000Y-95506000D02*
X221998000Y-95506000D01*
X231138000Y-97406000D02*
X231138000Y-95506000D01*
X234318000Y-97406000D02*
X231138000Y-97406000D01*
X234318000Y-163706000D02*
X234318000Y-97406000D01*
X231648000Y-163706000D02*
X234318000Y-163706000D01*
X229108000Y-166246000D02*
X231648000Y-163706000D01*
X196338000Y-166246000D02*
X229108000Y-166246000D01*
D11*
G04 #@! TO.C,U2*
X252222000Y-120142000D02*
X270002000Y-120142000D01*
X252222000Y-137922000D02*
X252222000Y-120142000D01*
X270002000Y-120142000D02*
X296672000Y-120142000D01*
X296672000Y-120142000D02*
X296672000Y-158242000D01*
X252222000Y-158242000D02*
X252222000Y-137922000D01*
X296672000Y-158242000D02*
X296672000Y-164592000D01*
X296672000Y-164592000D02*
X252222000Y-164592000D01*
X252222000Y-164592000D02*
X252222000Y-158242000D01*
G04 #@! TO.C,U1*
X115824000Y-164084000D02*
X115824000Y-146304000D01*
X133604000Y-164084000D02*
X115824000Y-164084000D01*
X115824000Y-146304000D02*
X115824000Y-119634000D01*
X115824000Y-119634000D02*
X153924000Y-119634000D01*
X153924000Y-164084000D02*
X133604000Y-164084000D01*
X153924000Y-119634000D02*
X160274000Y-119634000D01*
X160274000Y-119634000D02*
X160274000Y-164084000D01*
X160274000Y-164084000D02*
X153924000Y-164084000D01*
D10*
G04 #@! TO.C,C1*
X258287225Y-108765000D02*
X258287225Y-109265000D01*
X258037225Y-109015000D02*
X258537225Y-109015000D01*
X263443000Y-110206000D02*
X263443000Y-110774000D01*
X263403000Y-109972000D02*
X263403000Y-111008000D01*
X263363000Y-109813000D02*
X263363000Y-111167000D01*
X263323000Y-109685000D02*
X263323000Y-111295000D01*
X263283000Y-109575000D02*
X263283000Y-111405000D01*
X263243000Y-109479000D02*
X263243000Y-111501000D01*
X263203000Y-109392000D02*
X263203000Y-111588000D01*
X263163000Y-109312000D02*
X263163000Y-111668000D01*
X263123000Y-109239000D02*
X263123000Y-111741000D01*
X263083000Y-109171000D02*
X263083000Y-111809000D01*
X263043000Y-109107000D02*
X263043000Y-111873000D01*
X263003000Y-109047000D02*
X263003000Y-111933000D01*
X262963000Y-108990000D02*
X262963000Y-111990000D01*
X262923000Y-108936000D02*
X262923000Y-112044000D01*
X262883000Y-108885000D02*
X262883000Y-112095000D01*
X262843000Y-111530000D02*
X262843000Y-112143000D01*
X262843000Y-108837000D02*
X262843000Y-109450000D01*
X262803000Y-111530000D02*
X262803000Y-112189000D01*
X262803000Y-108791000D02*
X262803000Y-109450000D01*
X262763000Y-111530000D02*
X262763000Y-112233000D01*
X262763000Y-108747000D02*
X262763000Y-109450000D01*
X262723000Y-111530000D02*
X262723000Y-112275000D01*
X262723000Y-108705000D02*
X262723000Y-109450000D01*
X262683000Y-111530000D02*
X262683000Y-112316000D01*
X262683000Y-108664000D02*
X262683000Y-109450000D01*
X262643000Y-111530000D02*
X262643000Y-112354000D01*
X262643000Y-108626000D02*
X262643000Y-109450000D01*
X262603000Y-111530000D02*
X262603000Y-112391000D01*
X262603000Y-108589000D02*
X262603000Y-109450000D01*
X262563000Y-111530000D02*
X262563000Y-112427000D01*
X262563000Y-108553000D02*
X262563000Y-109450000D01*
X262523000Y-111530000D02*
X262523000Y-112461000D01*
X262523000Y-108519000D02*
X262523000Y-109450000D01*
X262483000Y-111530000D02*
X262483000Y-112494000D01*
X262483000Y-108486000D02*
X262483000Y-109450000D01*
X262443000Y-111530000D02*
X262443000Y-112525000D01*
X262443000Y-108455000D02*
X262443000Y-109450000D01*
X262403000Y-111530000D02*
X262403000Y-112555000D01*
X262403000Y-108425000D02*
X262403000Y-109450000D01*
X262363000Y-111530000D02*
X262363000Y-112585000D01*
X262363000Y-108395000D02*
X262363000Y-109450000D01*
X262323000Y-111530000D02*
X262323000Y-112612000D01*
X262323000Y-108368000D02*
X262323000Y-109450000D01*
X262283000Y-111530000D02*
X262283000Y-112639000D01*
X262283000Y-108341000D02*
X262283000Y-109450000D01*
X262243000Y-111530000D02*
X262243000Y-112665000D01*
X262243000Y-108315000D02*
X262243000Y-109450000D01*
X262203000Y-111530000D02*
X262203000Y-112690000D01*
X262203000Y-108290000D02*
X262203000Y-109450000D01*
X262163000Y-111530000D02*
X262163000Y-112714000D01*
X262163000Y-108266000D02*
X262163000Y-109450000D01*
X262123000Y-111530000D02*
X262123000Y-112737000D01*
X262123000Y-108243000D02*
X262123000Y-109450000D01*
X262083000Y-111530000D02*
X262083000Y-112758000D01*
X262083000Y-108222000D02*
X262083000Y-109450000D01*
X262043000Y-111530000D02*
X262043000Y-112780000D01*
X262043000Y-108200000D02*
X262043000Y-109450000D01*
X262003000Y-111530000D02*
X262003000Y-112800000D01*
X262003000Y-108180000D02*
X262003000Y-109450000D01*
X261963000Y-111530000D02*
X261963000Y-112819000D01*
X261963000Y-108161000D02*
X261963000Y-109450000D01*
X261923000Y-111530000D02*
X261923000Y-112838000D01*
X261923000Y-108142000D02*
X261923000Y-109450000D01*
X261883000Y-111530000D02*
X261883000Y-112855000D01*
X261883000Y-108125000D02*
X261883000Y-109450000D01*
X261843000Y-111530000D02*
X261843000Y-112872000D01*
X261843000Y-108108000D02*
X261843000Y-109450000D01*
X261803000Y-111530000D02*
X261803000Y-112888000D01*
X261803000Y-108092000D02*
X261803000Y-109450000D01*
X261763000Y-111530000D02*
X261763000Y-112904000D01*
X261763000Y-108076000D02*
X261763000Y-109450000D01*
X261723000Y-111530000D02*
X261723000Y-112918000D01*
X261723000Y-108062000D02*
X261723000Y-109450000D01*
X261683000Y-111530000D02*
X261683000Y-112932000D01*
X261683000Y-108048000D02*
X261683000Y-109450000D01*
X261643000Y-111530000D02*
X261643000Y-112945000D01*
X261643000Y-108035000D02*
X261643000Y-109450000D01*
X261603000Y-111530000D02*
X261603000Y-112958000D01*
X261603000Y-108022000D02*
X261603000Y-109450000D01*
X261563000Y-111530000D02*
X261563000Y-112970000D01*
X261563000Y-108010000D02*
X261563000Y-109450000D01*
X261522000Y-111530000D02*
X261522000Y-112981000D01*
X261522000Y-107999000D02*
X261522000Y-109450000D01*
X261482000Y-111530000D02*
X261482000Y-112991000D01*
X261482000Y-107989000D02*
X261482000Y-109450000D01*
X261442000Y-111530000D02*
X261442000Y-113001000D01*
X261442000Y-107979000D02*
X261442000Y-109450000D01*
X261402000Y-111530000D02*
X261402000Y-113010000D01*
X261402000Y-107970000D02*
X261402000Y-109450000D01*
X261362000Y-111530000D02*
X261362000Y-113018000D01*
X261362000Y-107962000D02*
X261362000Y-109450000D01*
X261322000Y-111530000D02*
X261322000Y-113026000D01*
X261322000Y-107954000D02*
X261322000Y-109450000D01*
X261282000Y-111530000D02*
X261282000Y-113033000D01*
X261282000Y-107947000D02*
X261282000Y-109450000D01*
X261242000Y-111530000D02*
X261242000Y-113040000D01*
X261242000Y-107940000D02*
X261242000Y-109450000D01*
X261202000Y-111530000D02*
X261202000Y-113046000D01*
X261202000Y-107934000D02*
X261202000Y-109450000D01*
X261162000Y-111530000D02*
X261162000Y-113051000D01*
X261162000Y-107929000D02*
X261162000Y-109450000D01*
X261122000Y-111530000D02*
X261122000Y-113055000D01*
X261122000Y-107925000D02*
X261122000Y-109450000D01*
X261082000Y-111530000D02*
X261082000Y-113059000D01*
X261082000Y-107921000D02*
X261082000Y-109450000D01*
X261042000Y-111530000D02*
X261042000Y-113063000D01*
X261042000Y-107917000D02*
X261042000Y-109450000D01*
X261002000Y-111530000D02*
X261002000Y-113066000D01*
X261002000Y-107914000D02*
X261002000Y-109450000D01*
X260962000Y-111530000D02*
X260962000Y-113068000D01*
X260962000Y-107912000D02*
X260962000Y-109450000D01*
X260922000Y-111530000D02*
X260922000Y-113069000D01*
X260922000Y-107911000D02*
X260922000Y-109450000D01*
X260882000Y-107910000D02*
X260882000Y-109450000D01*
X260882000Y-111530000D02*
X260882000Y-113070000D01*
X260842000Y-107910000D02*
X260842000Y-109450000D01*
X260842000Y-111530000D02*
X260842000Y-113070000D01*
X263462000Y-110490000D02*
G75*
G03X263462000Y-110490000I-2620000J0D01*
G01*
G04 #@! TO.C,C2*
X269035801Y-112139000D02*
X269035801Y-111739000D01*
X269235801Y-111939000D02*
X268835801Y-111939000D01*
X264885000Y-111114000D02*
X264885000Y-110374000D01*
X264925000Y-111281000D02*
X264925000Y-110207000D01*
X264965000Y-111408000D02*
X264965000Y-110080000D01*
X265005000Y-111512000D02*
X265005000Y-109976000D01*
X265045000Y-111603000D02*
X265045000Y-109885000D01*
X265085000Y-111684000D02*
X265085000Y-109804000D01*
X265125000Y-111757000D02*
X265125000Y-109731000D01*
X265165000Y-111824000D02*
X265165000Y-109664000D01*
X265205000Y-111886000D02*
X265205000Y-109602000D01*
X265245000Y-111944000D02*
X265245000Y-109544000D01*
X265285000Y-111998000D02*
X265285000Y-109490000D01*
X265325000Y-112048000D02*
X265325000Y-109440000D01*
X265365000Y-112095000D02*
X265365000Y-109393000D01*
X265405000Y-109904000D02*
X265405000Y-109348000D01*
X265405000Y-112140000D02*
X265405000Y-111584000D01*
X265445000Y-109904000D02*
X265445000Y-109306000D01*
X265445000Y-112182000D02*
X265445000Y-111584000D01*
X265485000Y-109904000D02*
X265485000Y-109266000D01*
X265485000Y-112222000D02*
X265485000Y-111584000D01*
X265525000Y-109904000D02*
X265525000Y-109228000D01*
X265525000Y-112260000D02*
X265525000Y-111584000D01*
X265565000Y-109904000D02*
X265565000Y-109192000D01*
X265565000Y-112296000D02*
X265565000Y-111584000D01*
X265605000Y-109904000D02*
X265605000Y-109157000D01*
X265605000Y-112331000D02*
X265605000Y-111584000D01*
X265645000Y-109904000D02*
X265645000Y-109125000D01*
X265645000Y-112363000D02*
X265645000Y-111584000D01*
X265685000Y-109904000D02*
X265685000Y-109094000D01*
X265685000Y-112394000D02*
X265685000Y-111584000D01*
X265725000Y-109904000D02*
X265725000Y-109064000D01*
X265725000Y-112424000D02*
X265725000Y-111584000D01*
X265765000Y-109904000D02*
X265765000Y-109036000D01*
X265765000Y-112452000D02*
X265765000Y-111584000D01*
X265805000Y-109904000D02*
X265805000Y-109009000D01*
X265805000Y-112479000D02*
X265805000Y-111584000D01*
X265845000Y-109904000D02*
X265845000Y-108984000D01*
X265845000Y-112504000D02*
X265845000Y-111584000D01*
X265885000Y-109904000D02*
X265885000Y-108959000D01*
X265885000Y-112529000D02*
X265885000Y-111584000D01*
X265925000Y-109904000D02*
X265925000Y-108936000D01*
X265925000Y-112552000D02*
X265925000Y-111584000D01*
X265965000Y-109904000D02*
X265965000Y-108914000D01*
X265965000Y-112574000D02*
X265965000Y-111584000D01*
X266005000Y-109904000D02*
X266005000Y-108893000D01*
X266005000Y-112595000D02*
X266005000Y-111584000D01*
X266045000Y-109904000D02*
X266045000Y-108874000D01*
X266045000Y-112614000D02*
X266045000Y-111584000D01*
X266085000Y-109904000D02*
X266085000Y-108855000D01*
X266085000Y-112633000D02*
X266085000Y-111584000D01*
X266125000Y-109904000D02*
X266125000Y-108837000D01*
X266125000Y-112651000D02*
X266125000Y-111584000D01*
X266165000Y-109904000D02*
X266165000Y-108820000D01*
X266165000Y-112668000D02*
X266165000Y-111584000D01*
X266205000Y-109904000D02*
X266205000Y-108804000D01*
X266205000Y-112684000D02*
X266205000Y-111584000D01*
X266245000Y-109904000D02*
X266245000Y-108790000D01*
X266245000Y-112698000D02*
X266245000Y-111584000D01*
X266286000Y-109904000D02*
X266286000Y-108776000D01*
X266286000Y-112712000D02*
X266286000Y-111584000D01*
X266326000Y-109904000D02*
X266326000Y-108762000D01*
X266326000Y-112726000D02*
X266326000Y-111584000D01*
X266366000Y-109904000D02*
X266366000Y-108750000D01*
X266366000Y-112738000D02*
X266366000Y-111584000D01*
X266406000Y-109904000D02*
X266406000Y-108739000D01*
X266406000Y-112749000D02*
X266406000Y-111584000D01*
X266446000Y-109904000D02*
X266446000Y-108728000D01*
X266446000Y-112760000D02*
X266446000Y-111584000D01*
X266486000Y-109904000D02*
X266486000Y-108719000D01*
X266486000Y-112769000D02*
X266486000Y-111584000D01*
X266526000Y-109904000D02*
X266526000Y-108710000D01*
X266526000Y-112778000D02*
X266526000Y-111584000D01*
X266566000Y-109904000D02*
X266566000Y-108702000D01*
X266566000Y-112786000D02*
X266566000Y-111584000D01*
X266606000Y-109904000D02*
X266606000Y-108694000D01*
X266606000Y-112794000D02*
X266606000Y-111584000D01*
X266646000Y-109904000D02*
X266646000Y-108688000D01*
X266646000Y-112800000D02*
X266646000Y-111584000D01*
X266686000Y-109904000D02*
X266686000Y-108682000D01*
X266686000Y-112806000D02*
X266686000Y-111584000D01*
X266726000Y-109904000D02*
X266726000Y-108677000D01*
X266726000Y-112811000D02*
X266726000Y-111584000D01*
X266766000Y-109904000D02*
X266766000Y-108673000D01*
X266766000Y-112815000D02*
X266766000Y-111584000D01*
X266806000Y-109904000D02*
X266806000Y-108670000D01*
X266806000Y-112818000D02*
X266806000Y-111584000D01*
X266846000Y-109904000D02*
X266846000Y-108667000D01*
X266846000Y-112821000D02*
X266846000Y-111584000D01*
X266886000Y-112823000D02*
X266886000Y-111584000D01*
X266886000Y-109904000D02*
X266886000Y-108665000D01*
X266926000Y-112824000D02*
X266926000Y-111584000D01*
X266926000Y-109904000D02*
X266926000Y-108664000D01*
X266966000Y-112824000D02*
X266966000Y-111584000D01*
X266966000Y-109904000D02*
X266966000Y-108664000D01*
X269086000Y-110744000D02*
G75*
G03X269086000Y-110744000I-2120000J0D01*
G01*
G04 #@! TO.C,D1*
X239966000Y-104104000D02*
X239810000Y-104104000D01*
X242282000Y-104104000D02*
X242126000Y-104104000D01*
X239966163Y-106705130D02*
G75*
G02X239966000Y-104623039I1079837J1041130D01*
G01*
X242125837Y-106705130D02*
G75*
G03X242126000Y-104623039I-1079837J1041130D01*
G01*
X239967392Y-107336335D02*
G75*
G02X239810484Y-104104000I1078608J1672335D01*
G01*
X242124608Y-107336335D02*
G75*
G03X242281516Y-104104000I-1078608J1672335D01*
G01*
G04 #@! TO.C,D2*
X239486000Y-113602000D02*
X239486000Y-113758000D01*
X239486000Y-111286000D02*
X239486000Y-111442000D01*
X242087130Y-113601837D02*
G75*
G02X240005039Y-113602000I-1041130J1079837D01*
G01*
X242087130Y-111442163D02*
G75*
G03X240005039Y-111442000I-1041130J-1079837D01*
G01*
X242718335Y-113600608D02*
G75*
G02X239486000Y-113757516I-1672335J1078608D01*
G01*
X242718335Y-111443392D02*
G75*
G03X239486000Y-111286484I-1672335J-1078608D01*
G01*
G04 #@! TO.C,J1*
X155642000Y-104454000D02*
X155642000Y-103124000D01*
X156972000Y-104454000D02*
X155642000Y-104454000D01*
X158242000Y-104454000D02*
X158242000Y-101794000D01*
X158242000Y-101794000D02*
X171002000Y-101794000D01*
X158242000Y-104454000D02*
X171002000Y-104454000D01*
X171002000Y-104454000D02*
X171002000Y-101794000D01*
G04 #@! TO.C,J2*
X136204000Y-110430000D02*
X136204000Y-111760000D01*
X134874000Y-110430000D02*
X136204000Y-110430000D01*
X133604000Y-110430000D02*
X133604000Y-113090000D01*
X133604000Y-113090000D02*
X120844000Y-113090000D01*
X133604000Y-110430000D02*
X120844000Y-110430000D01*
X120844000Y-110430000D02*
X120844000Y-113090000D01*
G04 #@! TO.C,J3*
X308670000Y-172018000D02*
X307340000Y-172018000D01*
X308670000Y-170688000D02*
X308670000Y-172018000D01*
X308670000Y-169418000D02*
X306010000Y-169418000D01*
X306010000Y-169418000D02*
X306010000Y-156658000D01*
X308670000Y-169418000D02*
X308670000Y-156658000D01*
X308670000Y-156658000D02*
X306010000Y-156658000D01*
G04 #@! TO.C,J4*
X308670000Y-133918000D02*
X307340000Y-133918000D01*
X308670000Y-132588000D02*
X308670000Y-133918000D01*
X308670000Y-131318000D02*
X306010000Y-131318000D01*
X306010000Y-131318000D02*
X306010000Y-118558000D01*
X308670000Y-131318000D02*
X308670000Y-118558000D01*
X308670000Y-118558000D02*
X306010000Y-118558000D01*
G04 #@! TO.C,J5*
X282702000Y-98298000D02*
X272542000Y-98298000D01*
X282702000Y-105918000D02*
X282702000Y-98298000D01*
X272542000Y-105918000D02*
X282702000Y-105918000D01*
X272542000Y-98298000D02*
X272542000Y-105918000D01*
X272542000Y-99568000D02*
X282702000Y-99568000D01*
G04 #@! TO.C,J6*
X125282000Y-105978000D02*
X123952000Y-105978000D01*
X125282000Y-104648000D02*
X125282000Y-105978000D01*
X125282000Y-103378000D02*
X122622000Y-103378000D01*
X122622000Y-103378000D02*
X122622000Y-98238000D01*
X125282000Y-103378000D02*
X125282000Y-98238000D01*
X125282000Y-98238000D02*
X122622000Y-98238000D01*
G04 #@! TO.C,J7*
X136458000Y-105978000D02*
X135128000Y-105978000D01*
X136458000Y-104648000D02*
X136458000Y-105978000D01*
X136458000Y-103378000D02*
X133798000Y-103378000D01*
X133798000Y-103378000D02*
X133798000Y-98238000D01*
X136458000Y-103378000D02*
X136458000Y-98238000D01*
X136458000Y-98238000D02*
X133798000Y-98238000D01*
G04 #@! TO.C,J8*
X183582000Y-170120000D02*
X184912000Y-170120000D01*
X183582000Y-171450000D02*
X183582000Y-170120000D01*
X183582000Y-172720000D02*
X186242000Y-172720000D01*
X186242000Y-172720000D02*
X186242000Y-180400000D01*
X183582000Y-172720000D02*
X183582000Y-180400000D01*
X183582000Y-180400000D02*
X186242000Y-180400000D01*
G04 #@! TO.C,J9*
X211014000Y-171390000D02*
X212344000Y-171390000D01*
X211014000Y-172720000D02*
X211014000Y-171390000D01*
X211014000Y-173990000D02*
X213674000Y-173990000D01*
X213674000Y-173990000D02*
X213674000Y-174050000D01*
X211014000Y-173990000D02*
X211014000Y-174050000D01*
X211014000Y-174050000D02*
X213674000Y-174050000D01*
G04 #@! TO.C,J10*
X207204000Y-171390000D02*
X208534000Y-171390000D01*
X207204000Y-172720000D02*
X207204000Y-171390000D01*
X207204000Y-173990000D02*
X209864000Y-173990000D01*
X209864000Y-173990000D02*
X209864000Y-174050000D01*
X207204000Y-173990000D02*
X207204000Y-174050000D01*
X207204000Y-174050000D02*
X209864000Y-174050000D01*
G04 #@! TO.C,J11*
X192726000Y-170120000D02*
X194056000Y-170120000D01*
X192726000Y-171450000D02*
X192726000Y-170120000D01*
X192726000Y-172720000D02*
X195386000Y-172720000D01*
X195386000Y-172720000D02*
X195386000Y-180400000D01*
X192726000Y-172720000D02*
X192726000Y-180400000D01*
X192726000Y-180400000D02*
X195386000Y-180400000D01*
G04 #@! TO.C,J12*
X200600000Y-170120000D02*
X201930000Y-170120000D01*
X200600000Y-171450000D02*
X200600000Y-170120000D01*
X200600000Y-172720000D02*
X203260000Y-172720000D01*
X203260000Y-172720000D02*
X203260000Y-175320000D01*
X200600000Y-172720000D02*
X200600000Y-175320000D01*
X200600000Y-175320000D02*
X203260000Y-175320000D01*
G04 #@! TO.C,J13*
X214824000Y-171390000D02*
X216154000Y-171390000D01*
X214824000Y-172720000D02*
X214824000Y-171390000D01*
X214824000Y-173990000D02*
X217484000Y-173990000D01*
X217484000Y-173990000D02*
X217484000Y-174050000D01*
X214824000Y-173990000D02*
X214824000Y-174050000D01*
X214824000Y-174050000D02*
X217484000Y-174050000D01*
G04 #@! TO.C,J14*
X218634000Y-174050000D02*
X221294000Y-174050000D01*
X218634000Y-173990000D02*
X218634000Y-174050000D01*
X221294000Y-173990000D02*
X221294000Y-174050000D01*
X218634000Y-173990000D02*
X221294000Y-173990000D01*
X218634000Y-172720000D02*
X218634000Y-171390000D01*
X218634000Y-171390000D02*
X219964000Y-171390000D01*
G04 #@! TO.C,J15*
X169866000Y-167834000D02*
X171196000Y-167834000D01*
X169866000Y-169164000D02*
X169866000Y-167834000D01*
X169866000Y-170434000D02*
X172526000Y-170434000D01*
X172526000Y-170434000D02*
X172526000Y-180654000D01*
X169866000Y-170434000D02*
X169866000Y-180654000D01*
X169866000Y-180654000D02*
X172526000Y-180654000D01*
G04 #@! TO.C,J16*
X222444000Y-171390000D02*
X223774000Y-171390000D01*
X222444000Y-172720000D02*
X222444000Y-171390000D01*
X222444000Y-173990000D02*
X225104000Y-173990000D01*
X225104000Y-173990000D02*
X225104000Y-174050000D01*
X222444000Y-173990000D02*
X222444000Y-174050000D01*
X222444000Y-174050000D02*
X225104000Y-174050000D01*
G04 #@! TO.C,J17*
X155642000Y-113090000D02*
X155642000Y-111760000D01*
X156972000Y-113090000D02*
X155642000Y-113090000D01*
X158242000Y-113090000D02*
X158242000Y-110430000D01*
X158242000Y-110430000D02*
X171002000Y-110430000D01*
X158242000Y-113090000D02*
X171002000Y-113090000D01*
X171002000Y-113090000D02*
X171002000Y-110430000D01*
G04 #@! TO.C,J18*
X226254000Y-171390000D02*
X227584000Y-171390000D01*
X226254000Y-172720000D02*
X226254000Y-171390000D01*
X226254000Y-173990000D02*
X228914000Y-173990000D01*
X228914000Y-173990000D02*
X228914000Y-174050000D01*
X226254000Y-173990000D02*
X226254000Y-174050000D01*
X226254000Y-174050000D02*
X228914000Y-174050000D01*
G04 #@! TO.C,R1*
X253976000Y-102616000D02*
X253206000Y-102616000D01*
X245896000Y-102616000D02*
X246666000Y-102616000D01*
X253206000Y-101246000D02*
X246666000Y-101246000D01*
X253206000Y-103986000D02*
X253206000Y-101246000D01*
X246666000Y-103986000D02*
X253206000Y-103986000D01*
X246666000Y-101246000D02*
X246666000Y-103986000D01*
G04 #@! TO.C,R2*
X240538000Y-130786000D02*
X240538000Y-130016000D01*
X240538000Y-122706000D02*
X240538000Y-123476000D01*
X241908000Y-130016000D02*
X241908000Y-123476000D01*
X239168000Y-130016000D02*
X241908000Y-130016000D01*
X239168000Y-123476000D02*
X239168000Y-130016000D01*
X241908000Y-123476000D02*
X239168000Y-123476000D01*
G04 #@! TO.C,R3*
X243840000Y-130786000D02*
X243840000Y-130016000D01*
X243840000Y-122706000D02*
X243840000Y-123476000D01*
X245210000Y-130016000D02*
X245210000Y-123476000D01*
X242470000Y-130016000D02*
X245210000Y-130016000D01*
X242470000Y-123476000D02*
X242470000Y-130016000D01*
X245210000Y-123476000D02*
X242470000Y-123476000D01*
G04 #@! TO.C,SW1*
X246234000Y-108760000D02*
X246234000Y-110260000D01*
X247484000Y-112760000D02*
X251984000Y-112760000D01*
X253234000Y-110260000D02*
X253234000Y-108760000D01*
X251984000Y-106260000D02*
X247484000Y-106260000D01*
G04 #@! TO.C,U3*
X264995000Y-99600000D02*
X264995000Y-101110000D01*
X261294000Y-99600000D02*
X261294000Y-101110000D01*
X258024000Y-101110000D02*
X268264000Y-101110000D01*
X268264000Y-99600000D02*
X268264000Y-104241000D01*
X258024000Y-99600000D02*
X258024000Y-104241000D01*
X258024000Y-104241000D02*
X268264000Y-104241000D01*
X258024000Y-99600000D02*
X268264000Y-99600000D01*
G04 #@! TO.C,REF\002A\002A*
D11*
X140906666Y-98760380D02*
X140573333Y-98284190D01*
X140335238Y-98760380D02*
X140335238Y-97760380D01*
X140716190Y-97760380D01*
X140811428Y-97808000D01*
X140859047Y-97855619D01*
X140906666Y-97950857D01*
X140906666Y-98093714D01*
X140859047Y-98188952D01*
X140811428Y-98236571D01*
X140716190Y-98284190D01*
X140335238Y-98284190D01*
X141335238Y-98236571D02*
X141668571Y-98236571D01*
X141811428Y-98760380D02*
X141335238Y-98760380D01*
X141335238Y-97760380D01*
X141811428Y-97760380D01*
X142573333Y-98236571D02*
X142240000Y-98236571D01*
X142240000Y-98760380D02*
X142240000Y-97760380D01*
X142716190Y-97760380D01*
X143240000Y-97760380D02*
X143240000Y-97998476D01*
X143001904Y-97903238D02*
X143240000Y-97998476D01*
X143478095Y-97903238D01*
X143097142Y-98188952D02*
X143240000Y-97998476D01*
X143382857Y-98188952D01*
X144001904Y-97760380D02*
X144001904Y-97998476D01*
X143763809Y-97903238D02*
X144001904Y-97998476D01*
X144240000Y-97903238D01*
X143859047Y-98188952D02*
X144001904Y-97998476D01*
X144144761Y-98188952D01*
X209486666Y-100604380D02*
X209153333Y-100128190D01*
X208915238Y-100604380D02*
X208915238Y-99604380D01*
X209296190Y-99604380D01*
X209391428Y-99652000D01*
X209439047Y-99699619D01*
X209486666Y-99794857D01*
X209486666Y-99937714D01*
X209439047Y-100032952D01*
X209391428Y-100080571D01*
X209296190Y-100128190D01*
X208915238Y-100128190D01*
X209915238Y-100080571D02*
X210248571Y-100080571D01*
X210391428Y-100604380D02*
X209915238Y-100604380D01*
X209915238Y-99604380D01*
X210391428Y-99604380D01*
X211153333Y-100080571D02*
X210820000Y-100080571D01*
X210820000Y-100604380D02*
X210820000Y-99604380D01*
X211296190Y-99604380D01*
X211820000Y-99604380D02*
X211820000Y-99842476D01*
X211581904Y-99747238D02*
X211820000Y-99842476D01*
X212058095Y-99747238D01*
X211677142Y-100032952D02*
X211820000Y-99842476D01*
X211962857Y-100032952D01*
X212581904Y-99604380D02*
X212581904Y-99842476D01*
X212343809Y-99747238D02*
X212581904Y-99842476D01*
X212820000Y-99747238D01*
X212439047Y-100032952D02*
X212581904Y-99842476D01*
X212724761Y-100032952D01*
X306006666Y-96286380D02*
X305673333Y-95810190D01*
X305435238Y-96286380D02*
X305435238Y-95286380D01*
X305816190Y-95286380D01*
X305911428Y-95334000D01*
X305959047Y-95381619D01*
X306006666Y-95476857D01*
X306006666Y-95619714D01*
X305959047Y-95714952D01*
X305911428Y-95762571D01*
X305816190Y-95810190D01*
X305435238Y-95810190D01*
X306435238Y-95762571D02*
X306768571Y-95762571D01*
X306911428Y-96286380D02*
X306435238Y-96286380D01*
X306435238Y-95286380D01*
X306911428Y-95286380D01*
X307673333Y-95762571D02*
X307340000Y-95762571D01*
X307340000Y-96286380D02*
X307340000Y-95286380D01*
X307816190Y-95286380D01*
X308340000Y-95286380D02*
X308340000Y-95524476D01*
X308101904Y-95429238D02*
X308340000Y-95524476D01*
X308578095Y-95429238D01*
X308197142Y-95714952D02*
X308340000Y-95524476D01*
X308482857Y-95714952D01*
X309101904Y-95286380D02*
X309101904Y-95524476D01*
X308863809Y-95429238D02*
X309101904Y-95524476D01*
X309340000Y-95429238D01*
X308959047Y-95714952D02*
X309101904Y-95524476D01*
X309244761Y-95714952D01*
X231330666Y-174264380D02*
X230997333Y-173788190D01*
X230759238Y-174264380D02*
X230759238Y-173264380D01*
X231140190Y-173264380D01*
X231235428Y-173312000D01*
X231283047Y-173359619D01*
X231330666Y-173454857D01*
X231330666Y-173597714D01*
X231283047Y-173692952D01*
X231235428Y-173740571D01*
X231140190Y-173788190D01*
X230759238Y-173788190D01*
X231759238Y-173740571D02*
X232092571Y-173740571D01*
X232235428Y-174264380D02*
X231759238Y-174264380D01*
X231759238Y-173264380D01*
X232235428Y-173264380D01*
X232997333Y-173740571D02*
X232664000Y-173740571D01*
X232664000Y-174264380D02*
X232664000Y-173264380D01*
X233140190Y-173264380D01*
X233664000Y-173264380D02*
X233664000Y-173502476D01*
X233425904Y-173407238D02*
X233664000Y-173502476D01*
X233902095Y-173407238D01*
X233521142Y-173692952D02*
X233664000Y-173502476D01*
X233806857Y-173692952D01*
X234425904Y-173264380D02*
X234425904Y-173502476D01*
X234187809Y-173407238D02*
X234425904Y-173502476D01*
X234664000Y-173407238D01*
X234283047Y-173692952D02*
X234425904Y-173502476D01*
X234568761Y-173692952D01*
G04 #@! TO.C,A1*
X235624666Y-127460285D02*
X235624666Y-126984095D01*
X235910380Y-127555523D02*
X234910380Y-127222190D01*
X235910380Y-126888857D01*
X235910380Y-126031714D02*
X235910380Y-126603142D01*
X235910380Y-126317428D02*
X234910380Y-126317428D01*
X235053238Y-126412666D01*
X235148476Y-126507904D01*
X235196095Y-126603142D01*
G04 #@! TO.C,U2*
X257810095Y-117554380D02*
X257810095Y-118363904D01*
X257857714Y-118459142D01*
X257905333Y-118506761D01*
X258000571Y-118554380D01*
X258191047Y-118554380D01*
X258286285Y-118506761D01*
X258333904Y-118459142D01*
X258381523Y-118363904D01*
X258381523Y-117554380D01*
X258810095Y-117649619D02*
X258857714Y-117602000D01*
X258952952Y-117554380D01*
X259191047Y-117554380D01*
X259286285Y-117602000D01*
X259333904Y-117649619D01*
X259381523Y-117744857D01*
X259381523Y-117840095D01*
X259333904Y-117982952D01*
X258762476Y-118554380D01*
X259381523Y-118554380D01*
G04 #@! TO.C,U1*
X113236380Y-158495904D02*
X114045904Y-158495904D01*
X114141142Y-158448285D01*
X114188761Y-158400666D01*
X114236380Y-158305428D01*
X114236380Y-158114952D01*
X114188761Y-158019714D01*
X114141142Y-157972095D01*
X114045904Y-157924476D01*
X113236380Y-157924476D01*
X114236380Y-156924476D02*
X114236380Y-157495904D01*
X114236380Y-157210190D02*
X113236380Y-157210190D01*
X113379238Y-157305428D01*
X113474476Y-157400666D01*
X113522095Y-157495904D01*
G04 #@! TO.C,C1*
X260675333Y-107097142D02*
X260627714Y-107144761D01*
X260484857Y-107192380D01*
X260389619Y-107192380D01*
X260246761Y-107144761D01*
X260151523Y-107049523D01*
X260103904Y-106954285D01*
X260056285Y-106763809D01*
X260056285Y-106620952D01*
X260103904Y-106430476D01*
X260151523Y-106335238D01*
X260246761Y-106240000D01*
X260389619Y-106192380D01*
X260484857Y-106192380D01*
X260627714Y-106240000D01*
X260675333Y-106287619D01*
X261627714Y-107192380D02*
X261056285Y-107192380D01*
X261342000Y-107192380D02*
X261342000Y-106192380D01*
X261246761Y-106335238D01*
X261151523Y-106430476D01*
X261056285Y-106478095D01*
G04 #@! TO.C,C2*
X266799333Y-114351142D02*
X266751714Y-114398761D01*
X266608857Y-114446380D01*
X266513619Y-114446380D01*
X266370761Y-114398761D01*
X266275523Y-114303523D01*
X266227904Y-114208285D01*
X266180285Y-114017809D01*
X266180285Y-113874952D01*
X266227904Y-113684476D01*
X266275523Y-113589238D01*
X266370761Y-113494000D01*
X266513619Y-113446380D01*
X266608857Y-113446380D01*
X266751714Y-113494000D01*
X266799333Y-113541619D01*
X267180285Y-113541619D02*
X267227904Y-113494000D01*
X267323142Y-113446380D01*
X267561238Y-113446380D01*
X267656476Y-113494000D01*
X267704095Y-113541619D01*
X267751714Y-113636857D01*
X267751714Y-113732095D01*
X267704095Y-113874952D01*
X267132666Y-114446380D01*
X267751714Y-114446380D01*
G04 #@! TO.C,D1*
X244458380Y-106402095D02*
X243458380Y-106402095D01*
X243458380Y-106164000D01*
X243506000Y-106021142D01*
X243601238Y-105925904D01*
X243696476Y-105878285D01*
X243886952Y-105830666D01*
X244029809Y-105830666D01*
X244220285Y-105878285D01*
X244315523Y-105925904D01*
X244410761Y-106021142D01*
X244458380Y-106164000D01*
X244458380Y-106402095D01*
X244458380Y-104878285D02*
X244458380Y-105449714D01*
X244458380Y-105164000D02*
X243458380Y-105164000D01*
X243601238Y-105259238D01*
X243696476Y-105354476D01*
X243744095Y-105449714D01*
G04 #@! TO.C,D2*
X240307904Y-110014380D02*
X240307904Y-109014380D01*
X240546000Y-109014380D01*
X240688857Y-109062000D01*
X240784095Y-109157238D01*
X240831714Y-109252476D01*
X240879333Y-109442952D01*
X240879333Y-109585809D01*
X240831714Y-109776285D01*
X240784095Y-109871523D01*
X240688857Y-109966761D01*
X240546000Y-110014380D01*
X240307904Y-110014380D01*
X241260285Y-109109619D02*
X241307904Y-109062000D01*
X241403142Y-109014380D01*
X241641238Y-109014380D01*
X241736476Y-109062000D01*
X241784095Y-109109619D01*
X241831714Y-109204857D01*
X241831714Y-109300095D01*
X241784095Y-109442952D01*
X241212666Y-110014380D01*
X241831714Y-110014380D01*
G04 #@! TO.C,J1*
X154094380Y-103457333D02*
X154808666Y-103457333D01*
X154951523Y-103504952D01*
X155046761Y-103600190D01*
X155094380Y-103743047D01*
X155094380Y-103838285D01*
X155094380Y-102457333D02*
X155094380Y-103028761D01*
X155094380Y-102743047D02*
X154094380Y-102743047D01*
X154237238Y-102838285D01*
X154332476Y-102933523D01*
X154380095Y-103028761D01*
G04 #@! TO.C,J2*
X136656380Y-112093333D02*
X137370666Y-112093333D01*
X137513523Y-112140952D01*
X137608761Y-112236190D01*
X137656380Y-112379047D01*
X137656380Y-112474285D01*
X136751619Y-111664761D02*
X136704000Y-111617142D01*
X136656380Y-111521904D01*
X136656380Y-111283809D01*
X136704000Y-111188571D01*
X136751619Y-111140952D01*
X136846857Y-111093333D01*
X136942095Y-111093333D01*
X137084952Y-111140952D01*
X137656380Y-111712380D01*
X137656380Y-111093333D01*
G04 #@! TO.C,J3*
X307006666Y-172470380D02*
X307006666Y-173184666D01*
X306959047Y-173327523D01*
X306863809Y-173422761D01*
X306720952Y-173470380D01*
X306625714Y-173470380D01*
X307387619Y-172470380D02*
X308006666Y-172470380D01*
X307673333Y-172851333D01*
X307816190Y-172851333D01*
X307911428Y-172898952D01*
X307959047Y-172946571D01*
X308006666Y-173041809D01*
X308006666Y-173279904D01*
X307959047Y-173375142D01*
X307911428Y-173422761D01*
X307816190Y-173470380D01*
X307530476Y-173470380D01*
X307435238Y-173422761D01*
X307387619Y-173375142D01*
G04 #@! TO.C,J4*
X307006666Y-134370380D02*
X307006666Y-135084666D01*
X306959047Y-135227523D01*
X306863809Y-135322761D01*
X306720952Y-135370380D01*
X306625714Y-135370380D01*
X307911428Y-134703714D02*
X307911428Y-135370380D01*
X307673333Y-134322761D02*
X307435238Y-135037047D01*
X308054285Y-135037047D01*
G04 #@! TO.C,J5*
X277288666Y-106640380D02*
X277288666Y-107354666D01*
X277241047Y-107497523D01*
X277145809Y-107592761D01*
X277002952Y-107640380D01*
X276907714Y-107640380D01*
X278241047Y-106640380D02*
X277764857Y-106640380D01*
X277717238Y-107116571D01*
X277764857Y-107068952D01*
X277860095Y-107021333D01*
X278098190Y-107021333D01*
X278193428Y-107068952D01*
X278241047Y-107116571D01*
X278288666Y-107211809D01*
X278288666Y-107449904D01*
X278241047Y-107545142D01*
X278193428Y-107592761D01*
X278098190Y-107640380D01*
X277860095Y-107640380D01*
X277764857Y-107592761D01*
X277717238Y-107545142D01*
G04 #@! TO.C,J6*
X123618666Y-106430380D02*
X123618666Y-107144666D01*
X123571047Y-107287523D01*
X123475809Y-107382761D01*
X123332952Y-107430380D01*
X123237714Y-107430380D01*
X124523428Y-106430380D02*
X124332952Y-106430380D01*
X124237714Y-106478000D01*
X124190095Y-106525619D01*
X124094857Y-106668476D01*
X124047238Y-106858952D01*
X124047238Y-107239904D01*
X124094857Y-107335142D01*
X124142476Y-107382761D01*
X124237714Y-107430380D01*
X124428190Y-107430380D01*
X124523428Y-107382761D01*
X124571047Y-107335142D01*
X124618666Y-107239904D01*
X124618666Y-107001809D01*
X124571047Y-106906571D01*
X124523428Y-106858952D01*
X124428190Y-106811333D01*
X124237714Y-106811333D01*
X124142476Y-106858952D01*
X124094857Y-106906571D01*
X124047238Y-107001809D01*
G04 #@! TO.C,J7*
X134794666Y-106430380D02*
X134794666Y-107144666D01*
X134747047Y-107287523D01*
X134651809Y-107382761D01*
X134508952Y-107430380D01*
X134413714Y-107430380D01*
X135175619Y-106430380D02*
X135842285Y-106430380D01*
X135413714Y-107430380D01*
G04 #@! TO.C,J8*
X184578666Y-168572380D02*
X184578666Y-169286666D01*
X184531047Y-169429523D01*
X184435809Y-169524761D01*
X184292952Y-169572380D01*
X184197714Y-169572380D01*
X185197714Y-169000952D02*
X185102476Y-168953333D01*
X185054857Y-168905714D01*
X185007238Y-168810476D01*
X185007238Y-168762857D01*
X185054857Y-168667619D01*
X185102476Y-168620000D01*
X185197714Y-168572380D01*
X185388190Y-168572380D01*
X185483428Y-168620000D01*
X185531047Y-168667619D01*
X185578666Y-168762857D01*
X185578666Y-168810476D01*
X185531047Y-168905714D01*
X185483428Y-168953333D01*
X185388190Y-169000952D01*
X185197714Y-169000952D01*
X185102476Y-169048571D01*
X185054857Y-169096190D01*
X185007238Y-169191428D01*
X185007238Y-169381904D01*
X185054857Y-169477142D01*
X185102476Y-169524761D01*
X185197714Y-169572380D01*
X185388190Y-169572380D01*
X185483428Y-169524761D01*
X185531047Y-169477142D01*
X185578666Y-169381904D01*
X185578666Y-169191428D01*
X185531047Y-169096190D01*
X185483428Y-169048571D01*
X185388190Y-169000952D01*
G04 #@! TO.C,J9*
X212010666Y-169842380D02*
X212010666Y-170556666D01*
X211963047Y-170699523D01*
X211867809Y-170794761D01*
X211724952Y-170842380D01*
X211629714Y-170842380D01*
X212534476Y-170842380D02*
X212724952Y-170842380D01*
X212820190Y-170794761D01*
X212867809Y-170747142D01*
X212963047Y-170604285D01*
X213010666Y-170413809D01*
X213010666Y-170032857D01*
X212963047Y-169937619D01*
X212915428Y-169890000D01*
X212820190Y-169842380D01*
X212629714Y-169842380D01*
X212534476Y-169890000D01*
X212486857Y-169937619D01*
X212439238Y-170032857D01*
X212439238Y-170270952D01*
X212486857Y-170366190D01*
X212534476Y-170413809D01*
X212629714Y-170461428D01*
X212820190Y-170461428D01*
X212915428Y-170413809D01*
X212963047Y-170366190D01*
X213010666Y-170270952D01*
G04 #@! TO.C,J10*
X207724476Y-169842380D02*
X207724476Y-170556666D01*
X207676857Y-170699523D01*
X207581619Y-170794761D01*
X207438761Y-170842380D01*
X207343523Y-170842380D01*
X208724476Y-170842380D02*
X208153047Y-170842380D01*
X208438761Y-170842380D02*
X208438761Y-169842380D01*
X208343523Y-169985238D01*
X208248285Y-170080476D01*
X208153047Y-170128095D01*
X209343523Y-169842380D02*
X209438761Y-169842380D01*
X209534000Y-169890000D01*
X209581619Y-169937619D01*
X209629238Y-170032857D01*
X209676857Y-170223333D01*
X209676857Y-170461428D01*
X209629238Y-170651904D01*
X209581619Y-170747142D01*
X209534000Y-170794761D01*
X209438761Y-170842380D01*
X209343523Y-170842380D01*
X209248285Y-170794761D01*
X209200666Y-170747142D01*
X209153047Y-170651904D01*
X209105428Y-170461428D01*
X209105428Y-170223333D01*
X209153047Y-170032857D01*
X209200666Y-169937619D01*
X209248285Y-169890000D01*
X209343523Y-169842380D01*
G04 #@! TO.C,J11*
X193246476Y-168572380D02*
X193246476Y-169286666D01*
X193198857Y-169429523D01*
X193103619Y-169524761D01*
X192960761Y-169572380D01*
X192865523Y-169572380D01*
X194246476Y-169572380D02*
X193675047Y-169572380D01*
X193960761Y-169572380D02*
X193960761Y-168572380D01*
X193865523Y-168715238D01*
X193770285Y-168810476D01*
X193675047Y-168858095D01*
X195198857Y-169572380D02*
X194627428Y-169572380D01*
X194913142Y-169572380D02*
X194913142Y-168572380D01*
X194817904Y-168715238D01*
X194722666Y-168810476D01*
X194627428Y-168858095D01*
G04 #@! TO.C,J12*
X201120476Y-168572380D02*
X201120476Y-169286666D01*
X201072857Y-169429523D01*
X200977619Y-169524761D01*
X200834761Y-169572380D01*
X200739523Y-169572380D01*
X202120476Y-169572380D02*
X201549047Y-169572380D01*
X201834761Y-169572380D02*
X201834761Y-168572380D01*
X201739523Y-168715238D01*
X201644285Y-168810476D01*
X201549047Y-168858095D01*
X202501428Y-168667619D02*
X202549047Y-168620000D01*
X202644285Y-168572380D01*
X202882380Y-168572380D01*
X202977619Y-168620000D01*
X203025238Y-168667619D01*
X203072857Y-168762857D01*
X203072857Y-168858095D01*
X203025238Y-169000952D01*
X202453809Y-169572380D01*
X203072857Y-169572380D01*
G04 #@! TO.C,J13*
X215344476Y-169842380D02*
X215344476Y-170556666D01*
X215296857Y-170699523D01*
X215201619Y-170794761D01*
X215058761Y-170842380D01*
X214963523Y-170842380D01*
X216344476Y-170842380D02*
X215773047Y-170842380D01*
X216058761Y-170842380D02*
X216058761Y-169842380D01*
X215963523Y-169985238D01*
X215868285Y-170080476D01*
X215773047Y-170128095D01*
X216677809Y-169842380D02*
X217296857Y-169842380D01*
X216963523Y-170223333D01*
X217106380Y-170223333D01*
X217201619Y-170270952D01*
X217249238Y-170318571D01*
X217296857Y-170413809D01*
X217296857Y-170651904D01*
X217249238Y-170747142D01*
X217201619Y-170794761D01*
X217106380Y-170842380D01*
X216820666Y-170842380D01*
X216725428Y-170794761D01*
X216677809Y-170747142D01*
G04 #@! TO.C,J14*
X219154476Y-169842380D02*
X219154476Y-170556666D01*
X219106857Y-170699523D01*
X219011619Y-170794761D01*
X218868761Y-170842380D01*
X218773523Y-170842380D01*
X220154476Y-170842380D02*
X219583047Y-170842380D01*
X219868761Y-170842380D02*
X219868761Y-169842380D01*
X219773523Y-169985238D01*
X219678285Y-170080476D01*
X219583047Y-170128095D01*
X221011619Y-170175714D02*
X221011619Y-170842380D01*
X220773523Y-169794761D02*
X220535428Y-170509047D01*
X221154476Y-170509047D01*
G04 #@! TO.C,J15*
X170386476Y-166286380D02*
X170386476Y-167000666D01*
X170338857Y-167143523D01*
X170243619Y-167238761D01*
X170100761Y-167286380D01*
X170005523Y-167286380D01*
X171386476Y-167286380D02*
X170815047Y-167286380D01*
X171100761Y-167286380D02*
X171100761Y-166286380D01*
X171005523Y-166429238D01*
X170910285Y-166524476D01*
X170815047Y-166572095D01*
X172291238Y-166286380D02*
X171815047Y-166286380D01*
X171767428Y-166762571D01*
X171815047Y-166714952D01*
X171910285Y-166667333D01*
X172148380Y-166667333D01*
X172243619Y-166714952D01*
X172291238Y-166762571D01*
X172338857Y-166857809D01*
X172338857Y-167095904D01*
X172291238Y-167191142D01*
X172243619Y-167238761D01*
X172148380Y-167286380D01*
X171910285Y-167286380D01*
X171815047Y-167238761D01*
X171767428Y-167191142D01*
G04 #@! TO.C,J16*
X222964476Y-169842380D02*
X222964476Y-170556666D01*
X222916857Y-170699523D01*
X222821619Y-170794761D01*
X222678761Y-170842380D01*
X222583523Y-170842380D01*
X223964476Y-170842380D02*
X223393047Y-170842380D01*
X223678761Y-170842380D02*
X223678761Y-169842380D01*
X223583523Y-169985238D01*
X223488285Y-170080476D01*
X223393047Y-170128095D01*
X224821619Y-169842380D02*
X224631142Y-169842380D01*
X224535904Y-169890000D01*
X224488285Y-169937619D01*
X224393047Y-170080476D01*
X224345428Y-170270952D01*
X224345428Y-170651904D01*
X224393047Y-170747142D01*
X224440666Y-170794761D01*
X224535904Y-170842380D01*
X224726380Y-170842380D01*
X224821619Y-170794761D01*
X224869238Y-170747142D01*
X224916857Y-170651904D01*
X224916857Y-170413809D01*
X224869238Y-170318571D01*
X224821619Y-170270952D01*
X224726380Y-170223333D01*
X224535904Y-170223333D01*
X224440666Y-170270952D01*
X224393047Y-170318571D01*
X224345428Y-170413809D01*
G04 #@! TO.C,J17*
X154094380Y-112569523D02*
X154808666Y-112569523D01*
X154951523Y-112617142D01*
X155046761Y-112712380D01*
X155094380Y-112855238D01*
X155094380Y-112950476D01*
X155094380Y-111569523D02*
X155094380Y-112140952D01*
X155094380Y-111855238D02*
X154094380Y-111855238D01*
X154237238Y-111950476D01*
X154332476Y-112045714D01*
X154380095Y-112140952D01*
X154094380Y-111236190D02*
X154094380Y-110569523D01*
X155094380Y-110998095D01*
G04 #@! TO.C,J18*
X226774476Y-169842380D02*
X226774476Y-170556666D01*
X226726857Y-170699523D01*
X226631619Y-170794761D01*
X226488761Y-170842380D01*
X226393523Y-170842380D01*
X227774476Y-170842380D02*
X227203047Y-170842380D01*
X227488761Y-170842380D02*
X227488761Y-169842380D01*
X227393523Y-169985238D01*
X227298285Y-170080476D01*
X227203047Y-170128095D01*
X228345904Y-170270952D02*
X228250666Y-170223333D01*
X228203047Y-170175714D01*
X228155428Y-170080476D01*
X228155428Y-170032857D01*
X228203047Y-169937619D01*
X228250666Y-169890000D01*
X228345904Y-169842380D01*
X228536380Y-169842380D01*
X228631619Y-169890000D01*
X228679238Y-169937619D01*
X228726857Y-170032857D01*
X228726857Y-170080476D01*
X228679238Y-170175714D01*
X228631619Y-170223333D01*
X228536380Y-170270952D01*
X228345904Y-170270952D01*
X228250666Y-170318571D01*
X228203047Y-170366190D01*
X228155428Y-170461428D01*
X228155428Y-170651904D01*
X228203047Y-170747142D01*
X228250666Y-170794761D01*
X228345904Y-170842380D01*
X228536380Y-170842380D01*
X228631619Y-170794761D01*
X228679238Y-170747142D01*
X228726857Y-170651904D01*
X228726857Y-170461428D01*
X228679238Y-170366190D01*
X228631619Y-170318571D01*
X228536380Y-170270952D01*
G04 #@! TO.C,R1*
X249769333Y-100698380D02*
X249436000Y-100222190D01*
X249197904Y-100698380D02*
X249197904Y-99698380D01*
X249578857Y-99698380D01*
X249674095Y-99746000D01*
X249721714Y-99793619D01*
X249769333Y-99888857D01*
X249769333Y-100031714D01*
X249721714Y-100126952D01*
X249674095Y-100174571D01*
X249578857Y-100222190D01*
X249197904Y-100222190D01*
X250721714Y-100698380D02*
X250150285Y-100698380D01*
X250436000Y-100698380D02*
X250436000Y-99698380D01*
X250340761Y-99841238D01*
X250245523Y-99936476D01*
X250150285Y-99984095D01*
G04 #@! TO.C,R2*
X237577333Y-122118380D02*
X237244000Y-121642190D01*
X237005904Y-122118380D02*
X237005904Y-121118380D01*
X237386857Y-121118380D01*
X237482095Y-121166000D01*
X237529714Y-121213619D01*
X237577333Y-121308857D01*
X237577333Y-121451714D01*
X237529714Y-121546952D01*
X237482095Y-121594571D01*
X237386857Y-121642190D01*
X237005904Y-121642190D01*
X237958285Y-121213619D02*
X238005904Y-121166000D01*
X238101142Y-121118380D01*
X238339238Y-121118380D01*
X238434476Y-121166000D01*
X238482095Y-121213619D01*
X238529714Y-121308857D01*
X238529714Y-121404095D01*
X238482095Y-121546952D01*
X237910666Y-122118380D01*
X238529714Y-122118380D01*
G04 #@! TO.C,R3*
X246467333Y-127706380D02*
X246134000Y-127230190D01*
X245895904Y-127706380D02*
X245895904Y-126706380D01*
X246276857Y-126706380D01*
X246372095Y-126754000D01*
X246419714Y-126801619D01*
X246467333Y-126896857D01*
X246467333Y-127039714D01*
X246419714Y-127134952D01*
X246372095Y-127182571D01*
X246276857Y-127230190D01*
X245895904Y-127230190D01*
X246800666Y-126706380D02*
X247419714Y-126706380D01*
X247086380Y-127087333D01*
X247229238Y-127087333D01*
X247324476Y-127134952D01*
X247372095Y-127182571D01*
X247419714Y-127277809D01*
X247419714Y-127515904D01*
X247372095Y-127611142D01*
X247324476Y-127658761D01*
X247229238Y-127706380D01*
X246943523Y-127706380D01*
X246848285Y-127658761D01*
X246800666Y-127611142D01*
G04 #@! TO.C,SW1*
X248400666Y-114164761D02*
X248543523Y-114212380D01*
X248781619Y-114212380D01*
X248876857Y-114164761D01*
X248924476Y-114117142D01*
X248972095Y-114021904D01*
X248972095Y-113926666D01*
X248924476Y-113831428D01*
X248876857Y-113783809D01*
X248781619Y-113736190D01*
X248591142Y-113688571D01*
X248495904Y-113640952D01*
X248448285Y-113593333D01*
X248400666Y-113498095D01*
X248400666Y-113402857D01*
X248448285Y-113307619D01*
X248495904Y-113260000D01*
X248591142Y-113212380D01*
X248829238Y-113212380D01*
X248972095Y-113260000D01*
X249305428Y-113212380D02*
X249543523Y-114212380D01*
X249734000Y-113498095D01*
X249924476Y-114212380D01*
X250162571Y-113212380D01*
X251067333Y-114212380D02*
X250495904Y-114212380D01*
X250781619Y-114212380D02*
X250781619Y-113212380D01*
X250686380Y-113355238D01*
X250591142Y-113450476D01*
X250495904Y-113498095D01*
G04 #@! TO.C,U3*
X262382095Y-98052380D02*
X262382095Y-98861904D01*
X262429714Y-98957142D01*
X262477333Y-99004761D01*
X262572571Y-99052380D01*
X262763047Y-99052380D01*
X262858285Y-99004761D01*
X262905904Y-98957142D01*
X262953523Y-98861904D01*
X262953523Y-98052380D01*
X263334476Y-98052380D02*
X263953523Y-98052380D01*
X263620190Y-98433333D01*
X263763047Y-98433333D01*
X263858285Y-98480952D01*
X263905904Y-98528571D01*
X263953523Y-98623809D01*
X263953523Y-98861904D01*
X263905904Y-98957142D01*
X263858285Y-99004761D01*
X263763047Y-99052380D01*
X263477333Y-99052380D01*
X263382095Y-99004761D01*
X263334476Y-98957142D01*
G04 #@! TO.C,REF\002A\002A*
X118046666Y-172486380D02*
X117713333Y-172010190D01*
X117475238Y-172486380D02*
X117475238Y-171486380D01*
X117856190Y-171486380D01*
X117951428Y-171534000D01*
X117999047Y-171581619D01*
X118046666Y-171676857D01*
X118046666Y-171819714D01*
X117999047Y-171914952D01*
X117951428Y-171962571D01*
X117856190Y-172010190D01*
X117475238Y-172010190D01*
X118475238Y-171962571D02*
X118808571Y-171962571D01*
X118951428Y-172486380D02*
X118475238Y-172486380D01*
X118475238Y-171486380D01*
X118951428Y-171486380D01*
X119713333Y-171962571D02*
X119380000Y-171962571D01*
X119380000Y-172486380D02*
X119380000Y-171486380D01*
X119856190Y-171486380D01*
X120380000Y-171486380D02*
X120380000Y-171724476D01*
X120141904Y-171629238D02*
X120380000Y-171724476D01*
X120618095Y-171629238D01*
X120237142Y-171914952D02*
X120380000Y-171724476D01*
X120522857Y-171914952D01*
X121141904Y-171486380D02*
X121141904Y-171724476D01*
X120903809Y-171629238D02*
X121141904Y-171724476D01*
X121380000Y-171629238D01*
X120999047Y-171914952D02*
X121141904Y-171724476D01*
X121284761Y-171914952D01*
X174942666Y-100030380D02*
X174609333Y-99554190D01*
X174371238Y-100030380D02*
X174371238Y-99030380D01*
X174752190Y-99030380D01*
X174847428Y-99078000D01*
X174895047Y-99125619D01*
X174942666Y-99220857D01*
X174942666Y-99363714D01*
X174895047Y-99458952D01*
X174847428Y-99506571D01*
X174752190Y-99554190D01*
X174371238Y-99554190D01*
X175371238Y-99506571D02*
X175704571Y-99506571D01*
X175847428Y-100030380D02*
X175371238Y-100030380D01*
X175371238Y-99030380D01*
X175847428Y-99030380D01*
X176609333Y-99506571D02*
X176276000Y-99506571D01*
X176276000Y-100030380D02*
X176276000Y-99030380D01*
X176752190Y-99030380D01*
X177276000Y-99030380D02*
X177276000Y-99268476D01*
X177037904Y-99173238D02*
X177276000Y-99268476D01*
X177514095Y-99173238D01*
X177133142Y-99458952D02*
X177276000Y-99268476D01*
X177418857Y-99458952D01*
X178037904Y-99030380D02*
X178037904Y-99268476D01*
X177799809Y-99173238D02*
X178037904Y-99268476D01*
X178276000Y-99173238D01*
X177895047Y-99458952D02*
X178037904Y-99268476D01*
X178180761Y-99458952D01*
G04 #@! TD*
M02*
