M48
;DRILL file {KiCad (5.0.2)-1} date 11-Feb-19 11:22:50
;FORMAT={-:-/ absolute / inch / decimal}
FMAT,2
INCH,TZ
T1C0.0157
T2C0.0236
T3C0.0300
T4C0.0315
T5C0.0354
T6C0.0394
T7C0.0433
T8C0.0598
T9C0.1260
T10C0.1654
T11C0.1693
%
G90
G05
T1
X8.88Y-6.29
T2
X10.4809Y-4.36
X10.54Y-4.36
T3
X5.6277Y-4.2797
X5.6277Y-6.9324
X5.7781Y-4.2797
X5.7781Y-6.9324
X6.71Y-5.01
X6.71Y-5.16
X6.71Y-5.31
X6.71Y-5.46
X6.7403Y-5.7509
X6.7403Y-5.9013
X6.7403Y-6.0517
X9.4576Y-5.7977
X9.4576Y-5.9481
X10.3383Y-6.9103
X10.4887Y-6.9103
X10.6391Y-6.9103
X10.93Y-6.88
X11.08Y-6.88
X11.23Y-6.88
X11.38Y-6.88
X12.1103Y-5.7977
X12.1103Y-5.9481
T4
X9.6Y-4.79
X9.6Y-5.19
X9.47Y-4.79
X9.47Y-5.19
X9.64Y-4.04
X10.04Y-4.04
X10.23Y-4.35
X10.3087Y-4.35
X7.22Y-4.5802
X7.22Y-4.6802
X7.22Y-4.7802
X7.22Y-4.8802
X7.22Y-4.9802
X7.22Y-5.0802
X7.22Y-5.1802
X7.22Y-5.2802
X7.22Y-5.3802
X7.22Y-5.4802
X7.22Y-5.64
X7.22Y-5.74
X7.22Y-5.84
X7.22Y-5.94
X7.22Y-6.04
X7.22Y-6.14
X7.22Y-6.24
X7.22Y-6.34
X9.12Y-4.94
X9.12Y-5.04
X9.12Y-5.14
X9.12Y-5.24
X9.12Y-5.34
X9.12Y-5.44
X9.12Y-5.54
X9.12Y-5.64
X9.12Y-5.84
X9.12Y-5.94
X9.12Y-6.04
X9.12Y-6.14
X9.12Y-6.24
X9.12Y-6.34
T5
X9.49Y-4.11
X9.49Y-4.21
X9.44Y-4.43
X9.54Y-4.43
T6
X7.64Y-6.75
X7.64Y-6.85
X7.64Y-6.95
X7.64Y-7.05
X8.81Y-6.8
X8.51Y-6.8
X7.28Y-6.75
X7.28Y-6.85
X7.28Y-6.95
X7.28Y-7.05
X8.66Y-6.8
X12.1Y-4.72
X12.1Y-4.82
X12.1Y-4.92
X12.1Y-5.02
X12.1Y-5.12
X12.1Y-5.22
X6.18Y-4.4
X6.28Y-4.4
X6.38Y-4.4
X6.48Y-4.4
X6.58Y-4.4
X6.68Y-4.4
X4.81Y-4.4
X4.91Y-4.4
X5.01Y-4.4
X5.11Y-4.4
X5.21Y-4.4
X5.31Y-4.4
X8.21Y-6.8
X4.88Y-3.92
X4.88Y-4.02
X4.88Y-4.12
X5.32Y-3.92
X5.32Y-4.02
X5.32Y-4.12
X8.96Y-6.8
X6.18Y-4.06
X6.28Y-4.06
X6.38Y-4.06
X6.48Y-4.06
X6.58Y-4.06
X6.68Y-4.06
X7.95Y-6.75
X7.95Y-6.85
X12.1Y-6.22
X12.1Y-6.32
X12.1Y-6.42
X12.1Y-6.52
X12.1Y-6.62
X12.1Y-6.72
X8.36Y-6.8
X6.74Y-6.66
X6.74Y-6.76
X6.74Y-6.86
X6.74Y-6.96
X6.74Y-7.06
T7
X10.26Y-4.05
X10.36Y-4.05
X10.46Y-4.05
X9.7041Y-4.2228
X9.7041Y-4.4
X9.96Y-4.2228
X9.96Y-4.4
T8
X10.83Y-4.02
X11.03Y-4.02
T9
X6.94Y-4.07
X5.6Y-4.02
T10
X4.71Y-4.86
X4.71Y-6.31
X6.16Y-4.86
X6.16Y-6.31
X10.08Y-4.88
X10.08Y-6.33
X11.53Y-4.88
X11.53Y-6.33
T11
X12.1Y-3.96
X9.16Y-7.03
X8.3Y-4.13
X4.7Y-6.96
T0
M30
